<svg width="151" height="44" viewBox="0 0 151 44" fill="none" xmlns="http://www.w3.org/2000/svg">
<path d="M61.4807 29L65.8967 11.276H71.7887L76.1807 29H72.3647L68.8367 13.544H68.8607L65.2967 29H61.4807ZM64.6487 24.896V21.992H73.0487V24.896H64.6487Z" fill="white"/>
<path d="M87.1 27.488C87.8839 27.568 88.568 27.72 89.152 27.944C89.744 28.16 90.2039 28.484 90.532 28.916C90.86 29.34 91.024 29.908 91.024 30.62C91.024 31.444 90.752 32.144 90.208 32.72C89.672 33.304 88.884 33.748 87.844 34.052C86.804 34.356 85.544 34.508 84.0639 34.508C81.88 34.508 80.188 34.192 78.988 33.56C77.796 32.936 77.2 32.1 77.2 31.052C77.2 30.756 77.2319 30.488 77.296 30.248C77.368 30.016 77.456 29.816 77.56 29.648L80.944 30.14C80.904 30.196 80.8599 30.28 80.812 30.392C80.7719 30.512 80.752 30.66 80.752 30.836C80.752 31.26 81.0679 31.576 81.7 31.784C82.34 31.992 83.1639 32.096 84.172 32.096C84.8839 32.096 85.492 32.044 85.996 31.94C86.508 31.844 86.896 31.7 87.16 31.508C87.432 31.316 87.568 31.096 87.568 30.848C87.568 30.488 87.392 30.252 87.04 30.14C86.696 30.028 86.296 29.948 85.84 29.9L81.016 29.408C80.128 29.32 79.392 29.064 78.808 28.64C78.224 28.216 77.932 27.644 77.932 26.924C77.932 26.476 78.056 26.068 78.304 25.7C78.552 25.324 78.836 25.016 79.156 24.776C79.476 24.528 79.7439 24.372 79.96 24.308L81.8559 25.268C81.7039 25.292 81.524 25.388 81.316 25.556C81.116 25.724 81.016 25.92 81.016 26.144C81.016 26.368 81.128 26.56 81.352 26.72C81.584 26.88 82.004 26.988 82.612 27.044L87.1 27.488ZM88.36 16.256H91.636L90.304 21.152C90.056 22.08 89.688 22.908 89.2 23.636C88.712 24.356 88.06 24.924 87.2439 25.34C86.436 25.756 85.416 25.964 84.184 25.964C82.888 25.964 81.764 25.764 80.812 25.364C79.868 24.964 79.14 24.4 78.628 23.672C78.116 22.936 77.86 22.068 77.86 21.068C77.86 20.068 78.12 19.188 78.64 18.428C79.168 17.668 79.884 17.076 80.788 16.652C81.7 16.228 82.7319 16.016 83.8839 16.016C84.756 16.016 85.5519 16.16 86.2719 16.448C86.9999 16.728 87.584 17.1 88.024 17.564C88.472 18.028 88.704 18.54 88.72 19.1L88.0359 19.28L88.36 16.256ZM84.16 23.24C84.688 23.24 85.152 23.156 85.552 22.988C85.952 22.812 86.264 22.56 86.488 22.232C86.712 21.896 86.824 21.492 86.824 21.02C86.824 20.556 86.712 20.16 86.488 19.832C86.264 19.504 85.952 19.252 85.552 19.076C85.152 18.9 84.688 18.812 84.16 18.812C83.656 18.812 83.2 18.904 82.792 19.088C82.392 19.264 82.076 19.52 81.844 19.856C81.612 20.184 81.496 20.584 81.496 21.056C81.496 21.52 81.608 21.916 81.832 22.244C82.056 22.564 82.368 22.812 82.768 22.988C83.168 23.156 83.632 23.24 84.16 23.24Z" fill="white"/>
<path d="M94.4038 23.744V21.284H102.852L102.492 21.908C102.492 21.844 102.492 21.784 102.492 21.728C102.492 21.664 102.492 21.604 102.492 21.548C102.492 21.092 102.384 20.656 102.168 20.24C101.952 19.816 101.616 19.472 101.16 19.208C100.712 18.936 100.136 18.8 99.4318 18.8C98.7278 18.8 98.1198 18.952 97.6078 19.256C97.1038 19.552 96.7158 19.98 96.4438 20.54C96.1798 21.1 96.0478 21.776 96.0478 22.568C96.0478 23.384 96.1758 24.084 96.4318 24.668C96.6958 25.244 97.0838 25.688 97.5958 26C98.1158 26.312 98.7598 26.468 99.5278 26.468C100.024 26.468 100.452 26.424 100.812 26.336C101.172 26.24 101.464 26.12 101.688 25.976C101.92 25.832 102.096 25.672 102.216 25.496C102.336 25.32 102.408 25.148 102.432 24.98H106.104C106.056 25.516 105.872 26.044 105.552 26.564C105.232 27.076 104.788 27.54 104.22 27.956C103.652 28.364 102.96 28.688 102.144 28.928C101.336 29.168 100.412 29.288 99.3718 29.288C97.9638 29.288 96.7358 29.008 95.6878 28.448C94.6398 27.88 93.8278 27.1 93.2518 26.108C92.6758 25.108 92.3878 23.956 92.3878 22.652C92.3878 21.332 92.6798 20.176 93.2638 19.184C93.8558 18.184 94.6758 17.408 95.7238 16.856C96.7798 16.296 97.9998 16.016 99.3838 16.016C100.8 16.016 102.024 16.3 103.056 16.868C104.088 17.428 104.884 18.216 105.444 19.232C106.004 20.24 106.284 21.416 106.284 22.76C106.284 22.96 106.28 23.152 106.272 23.336C106.264 23.52 106.252 23.656 106.236 23.744H94.4038Z" fill="white"/>
<path d="M117.585 29V23.588C117.585 23.284 117.585 23.008 117.585 22.76C117.585 22.512 117.585 22.288 117.585 22.088C117.585 21.56 117.517 21.08 117.381 20.648C117.245 20.208 117.001 19.856 116.649 19.592C116.297 19.328 115.789 19.196 115.125 19.196C114.549 19.196 114.049 19.328 113.625 19.592C113.209 19.856 112.889 20.224 112.665 20.696C112.441 21.168 112.329 21.712 112.329 22.328L111.297 21.584C111.297 20.48 111.537 19.512 112.017 18.68C112.497 17.848 113.145 17.196 113.961 16.724C114.785 16.252 115.697 16.016 116.697 16.016C117.745 16.016 118.605 16.228 119.277 16.652C119.957 17.068 120.461 17.652 120.789 18.404C121.125 19.148 121.293 20.02 121.293 21.02C121.293 21.428 121.293 21.884 121.293 22.388C121.293 22.892 121.293 23.408 121.293 23.936V29H117.585ZM108.609 29V16.256H112.329V29H108.609Z" fill="white"/>
<path d="M130.497 29.288C129.097 29.288 127.869 29.008 126.813 28.448C125.757 27.88 124.937 27.092 124.353 26.084C123.777 25.076 123.489 23.912 123.489 22.592C123.489 21.256 123.777 20.1 124.353 19.124C124.937 18.14 125.757 17.376 126.813 16.832C127.869 16.288 129.097 16.016 130.497 16.016C131.545 16.016 132.473 16.172 133.281 16.484C134.089 16.788 134.765 17.192 135.309 17.696C135.853 18.2 136.265 18.752 136.545 19.352C136.825 19.952 136.965 20.548 136.965 21.14C136.965 21.148 136.965 21.164 136.965 21.188C136.965 21.204 136.965 21.22 136.965 21.236H133.281C133.281 21.188 133.277 21.144 133.269 21.104C133.269 21.056 133.261 21.008 133.245 20.96C133.181 20.624 133.041 20.308 132.825 20.012C132.609 19.716 132.305 19.476 131.913 19.292C131.529 19.1 131.049 19.004 130.473 19.004C129.857 19.004 129.305 19.14 128.817 19.412C128.337 19.684 127.957 20.088 127.677 20.624C127.397 21.152 127.257 21.808 127.257 22.592C127.257 23.36 127.397 24.024 127.677 24.584C127.957 25.136 128.337 25.56 128.817 25.856C129.305 26.152 129.857 26.3 130.473 26.3C131.105 26.3 131.621 26.204 132.021 26.012C132.421 25.812 132.721 25.548 132.921 25.22C133.121 24.884 133.241 24.516 133.281 24.116H136.965C136.965 24.708 136.825 25.312 136.545 25.928C136.273 26.536 135.865 27.092 135.321 27.596C134.785 28.1 134.113 28.508 133.305 28.82C132.497 29.132 131.561 29.288 130.497 29.288Z" fill="white"/>
<path d="M139.758 34.508C139.358 34.508 138.998 34.492 138.678 34.46C138.366 34.436 138.17 34.408 138.09 34.376V31.556C138.194 31.604 138.374 31.64 138.63 31.664C138.894 31.696 139.174 31.712 139.47 31.712C139.862 31.712 140.214 31.632 140.526 31.472C140.846 31.32 141.118 31.1 141.342 30.812C141.574 30.532 141.754 30.2 141.882 29.816L142.098 29.168L137.706 16.256H141.582L144.354 26.708H143.922L146.586 16.256H150.414L146.034 29.636C145.706 30.644 145.302 31.512 144.822 32.24C144.342 32.968 143.702 33.528 142.902 33.92C142.102 34.312 141.054 34.508 139.758 34.508Z" fill="white"/>
<path fill-rule="evenodd" clip-rule="evenodd" d="M22.3207 14L31.3508 20.5627L27.9016 31.1813H16.7398L13.2906 20.5627L22.3207 14Z" fill="#EF6D58"/>
</svg>
